Sherlock Holmes (2009) BDRip XviD-MAX

Format                           : AVI
Format/Info                      : Audio Video Interleave
File size                        : 1.61 GiB
Duration                         : 2h 6mn
Overall bit rate                 : 1 820 Kbps
Writing application              : VirtualDubMod 1.5.10.2 (build 2542/release)
Writing library                  : VirtualDubMod build 2542/release
Original source form             : MAX TORRENTZ
Copyright                        : SIGISMUNT

Video
ID                               : 0
Format                           : MPEG-4 Visual
Format profile                   : AdvancedSimple@L5
Format settings, BVOP            : Yes
Format settings, QPel            : No
Format settings, GMC             : No warppoints
Format settings, Matrix          : Custom
Codec ID                         : XVID
Codec ID/Hint                    : XviD
Duration                         : 2h 6mn
Bit rate                         : 1 363 Kbps
Width                            : 720 pixels
Height                           : 400 pixels
Display aspect ratio             : 16:9
Frame rate                       : 23.976 fps
Resolution                       : 24 bits
Colorimetry                      : 4:2:0
Scan type                        : Progressive
Bits/(Pixel*Frame)               : 0.197
Stream size                      : 1.21 GiB (75%)
Writing library                  : XviD 1.2.1 (UTC 2008-12-04)

Audio
ID                               : 1
Format                           : AC-3
Format/Info                      : Audio Coding 3
Codec ID                         : 2000
Duration                         : 2h 6mn
Bit rate mode                    : Constant
Bit rate                         : 448 Kbps
Channel(s)                       : 6 channels
Channel positions                : Front: L C R, Surround: L R, LFE
Sampling rate                    : 48.0 KHz
Stream size                      : 406 MiB (25%)
Alignment                        : Split accross interleaves
Interleave, duration             : 42 ms (1.00 video frame)
Interleave, preload duration     : 500 ms

ENCODE NOTE: Source - 1080p BluRay , perfect video and sound quality , no jerky movement or bad framerate as other rips
 
http://www.imdb.com/title/tt0988045/

Screens:
 
http://www.postimg.com/image/13000/12053.jpg
 
http://www.postimg.com/image/13000/12054.jpg
 
http://www.postimg.com/image/13000/12055.jpg
 
http://www.postimg.com/image/13000/12056.jpg
 
http://www.postimg.com/image/13000/12057.jpg

ScreenCaps:
 
http://www.postimg.com/image/13000/12058.jpg

Sherlock Holmes (2009) BDRip XviD-MAX Torrent Free Download
 
http://thepiratebay.org/user/extremezone/0/7